<svg xmlns="http://www.w3.org/2000/svg" xmlns:xlink="http://www.w3.org/1999/xlink" width="40" zoomAndPan="magnify" viewBox="0 0 30 30.000001" height="40" preserveAspectRatio="xMidYMid meet" version="1.0"><defs><g/><clipPath id="62bf5ef530"><path d="M 0.484375 0 L 29.515625 0 L 29.515625 29.03125 L 0.484375 29.03125 Z M 0.484375 0 " clip-rule="nonzero"/></clipPath><clipPath id="1c250253c7"><path d="M 4.621094 4.136719 L 25.667969 4.136719 L 25.667969 25 L 4.621094 25 Z M 4.621094 4.136719 " clip-rule="nonzero"/></clipPath></defs><g clip-path="url(#62bf5ef530)"><path fill="#ffffff" d="M 0.484375 0 L 29.515625 0 L 29.515625 29.03125 L 0.484375 29.03125 Z M 0.484375 0 " fill-opacity="1" fill-rule="nonzero"/><path fill="#ff3131" d="M 0.484375 0 L 29.515625 0 L 29.515625 29.03125 L 0.484375 29.03125 Z M 0.484375 0 " fill-opacity="1" fill-rule="nonzero"/></g><g clip-path="url(#1c250253c7)"><path fill="#ffffff" d="M 14.996094 4.136719 C 9.269531 4.136719 4.621094 8.785156 4.621094 14.515625 C 4.621094 20.242188 9.269531 24.890625 14.996094 24.890625 C 20.726562 24.890625 25.375 20.242188 25.375 14.515625 C 25.375 8.785156 20.726562 4.136719 14.996094 4.136719 Z M 14.996094 4.714844 C 20.414062 4.714844 24.796875 9.097656 24.796875 14.515625 C 24.796875 19.929688 20.414062 24.3125 14.996094 24.3125 C 9.582031 24.3125 5.199219 19.929688 5.199219 14.515625 C 5.199219 9.097656 9.582031 4.714844 14.996094 4.714844 Z M 14.996094 4.714844 " fill-opacity="1" fill-rule="nonzero"/></g><g fill="#ffffff" fill-opacity="1"><g transform="translate(11.212197, 18.145163)"><g><path d="M 2.21875 0 L 0.890625 0 L 0.890625 -6.90625 L 2.453125 -6.90625 L 5.234375 -2.453125 L 5.359375 -2.46875 L 5.359375 -6.90625 L 6.671875 -6.90625 L 6.671875 0 L 5.265625 0 L 2.34375 -4.75 L 2.21875 -4.734375 Z M 2.21875 0 "/></g></g></g></svg>